<svg 
 xmlns="http://www.w3.org/2000/svg"
 xmlns:xlink="http://www.w3.org/1999/xlink"
 width="32px" height="41px">
<path fill-rule="evenodd"  fill="rgb(255, 255, 255)"
 d="M31.147,10.401 L25.467,20.238 C24.571,21.791 22.586,22.322 21.034,21.426 L19.628,20.615 L21.251,17.804 L21.251,17.804 C22.027,18.252 23.020,17.986 23.468,17.210 L27.525,10.183 C27.973,9.407 27.707,8.414 26.931,7.966 L21.309,4.721 C20.533,4.272 19.541,4.539 19.093,5.315 L15.035,12.342 C14.587,13.118 14.853,14.110 15.629,14.558 L14.007,17.369 L12.601,16.558 C11.049,15.662 10.517,13.677 11.413,12.124 L17.093,2.286 C17.989,0.734 19.974,0.202 21.527,1.099 L29.959,5.967 C31.511,6.863 32.043,8.848 31.147,10.401 ZM11.949,27.425 C11.173,26.976 10.907,25.984 11.355,25.208 L17.846,13.964 C18.294,13.188 19.287,12.922 20.063,13.370 C20.839,13.819 21.105,14.811 20.657,15.587 L14.166,26.830 C13.718,27.607 12.725,27.872 11.949,27.425 ZM10.761,22.991 L10.761,22.991 C9.985,22.543 8.992,22.809 8.544,23.585 L4.487,30.612 C4.039,31.388 4.305,32.380 5.081,32.829 L10.703,36.074 C11.479,36.522 12.471,36.256 12.919,35.480 L16.977,28.453 C17.425,27.677 17.159,26.685 16.383,26.236 L16.382,26.236 L18.005,23.426 L19.411,24.237 C20.963,25.133 21.495,27.118 20.599,28.671 L14.919,38.508 C14.023,40.061 12.038,40.593 10.485,39.696 L2.053,34.828 C0.501,33.932 -0.031,31.947 0.865,30.394 L6.545,20.557 C7.441,19.004 9.426,18.472 10.978,19.369 L12.384,20.180 L10.761,22.991 Z"/>
</svg>